<?xml version="1.0" encoding="utf-8" standalone="no"?>
<!DOCTYPE svg PUBLIC "-//W3C//DTD SVG 1.1//EN"
  "http://www.w3.org/Graphics/SVG/1.1/DTD/svg11.dtd">
<svg xmlns:xlink="http://www.w3.org/1999/xlink" width="849.528pt" height="349.38pt" viewBox="0 0 849.528 349.38" xmlns="http://www.w3.org/2000/svg" version="1.1">
 <metadata>
  <rdf:RDF xmlns:dc="http://purl.org/dc/elements/1.1/" xmlns:cc="http://creativecommons.org/ns#" xmlns:rdf="http://www.w3.org/1999/02/22-rdf-syntax-ns#">
   <cc:Work>
    <dc:type rdf:resource="http://purl.org/dc/dcmitype/StillImage"/>
    <dc:date>2026-01-06T10:00:33.711033</dc:date>
    <dc:format>image/svg+xml</dc:format>
    <dc:creator>
     <cc:Agent>
      <dc:title>Matplotlib v3.10.8, https://matplotlib.org/</dc:title>
     </cc:Agent>
    </dc:creator>
   </cc:Work>
  </rdf:RDF>
 </metadata>
 <defs>
  <style type="text/css">*{stroke-linejoin: round; stroke-linecap: butt}</style>
 </defs>
 <g id="figure_1">
  <g id="patch_1">
   <path d="M 0 349.38 
L 849.528 349.38 
L 849.528 0 
L 0 0 
L 0 349.38 
z
" style="fill: none"/>
  </g>
  <g id="axes_1">
   <g id="patch_2">
    <path d="M 222.228 234 
C 227.001656 234 231.580438 232.103406 234.955922 228.727922 
C 238.331406 225.352438 240.228 220.773656 240.228 216 
C 240.228 211.226344 238.331406 206.647562 234.955922 203.272078 
C 231.580438 199.896594 227.001656 198 222.228 198 
C 217.454344 198 212.875562 199.896594 209.500078 203.272078 
C 206.124594 206.647562 204.228 211.226344 204.228 216 
C 204.228 220.773656 206.124594 225.352438 209.500078 228.727922 
C 212.875562 232.103406 217.454344 234 222.228 234 
L 222.228 234 
z
" clip-path="url(#pca410b96f8)" style="fill: none; stroke: #000000; stroke-linejoin: miter"/>
   </g>
   <g id="patch_3">
    <path d="M 510.228 225 
C 515.001656 225 519.580438 223.103406 522.955922 219.727922 
C 526.331406 216.352438 528.228 211.773656 528.228 207 
C 528.228 202.226344 526.331406 197.647562 522.955922 194.272078 
C 519.580438 190.896594 515.001656 189 510.228 189 
C 505.454344 189 500.875562 190.896594 497.500078 194.272078 
C 494.124594 197.647562 492.228 202.226344 492.228 207 
C 492.228 211.773656 494.124594 216.352438 497.500078 219.727922 
C 500.875562 223.103406 505.454344 225 510.228 225 
L 510.228 225 
z
" clip-path="url(#pca410b96f8)" style="fill: none; stroke: #000000; stroke-linejoin: miter"/>
   </g>
   <g id="patch_4">
    <path d="M 267.228 49.68 
Q 339.228 78.48 406.214226 51.68551 
" clip-path="url(#pca410b96f8)" style="fill: none; stroke: #0000ff; stroke-linejoin: miter; stroke-linecap: round"/>
   </g>
   <g id="patch_5">
    <path d="M 399.863445 50.348503 
L 411.228 49.68 
L 402.537458 57.033535 
z
" clip-path="url(#pca410b96f8)" style="fill: #0000ff"/>
   </g>
   <g id="patch_6">
    <path d="M 387.828 333 
Q 359.028 252 386.018948 176.087959 
" clip-path="url(#pca410b96f8)" style="fill: none; stroke: #0000ff; stroke-linejoin: miter; stroke-linecap: round"/>
   </g>
   <g id="patch_7">
    <path d="M 380.817923 179.969884 
L 387.828 171 
L 387.601868 182.381953 
z
" clip-path="url(#pca410b96f8)" style="fill: #0000ff"/>
   </g>
   <g id="line2d_1">
    <path d="M 42.228 162 
L 78.228 162 
L 114.228 162 
" clip-path="url(#pca410b96f8)" style="fill: none; stroke: #000000; stroke-linecap: round"/>
   </g>
   <g id="line2d_2">
    <path d="M 114.228 162 
L 114.228 198 
L 120.708 201 
L 107.748 207 
L 120.708 213 
L 107.748 219 
L 120.708 225 
L 107.748 231 
L 114.228 234 
L 114.228 270 
" clip-path="url(#pca410b96f8)" style="fill: none; stroke: #000000; stroke-linecap: round"/>
   </g>
   <g id="line2d_3">
    <path d="M 114.228 270 
L 141.228 270 
L 168.228 270 
" clip-path="url(#pca410b96f8)" style="fill: none; stroke: #000000; stroke-linecap: round"/>
   </g>
   <g id="line2d_4">
    <path d="M 168.228 270 
L 168.228 306 
L 168.228 342 
" clip-path="url(#pca410b96f8)" style="fill: none; stroke: #000000; stroke-linecap: round"/>
   </g>
   <g id="line2d_5">
    <path d="M 168.228 342 
L 105.228 342 
L 42.228 342 
" clip-path="url(#pca410b96f8)" style="fill: none; stroke: #000000; stroke-linecap: round"/>
   </g>
   <g id="line2d_6">
    <path d="M 168.228 270 
L 195.228 270 
L 222.228 270 
" clip-path="url(#pca410b96f8)" style="fill: none; stroke: #000000; stroke-linecap: round"/>
   </g>
   <g id="line2d_7">
    <path d="M 222.228 270 
L 222.228 234 
L 222.228 234 
M 222.228 198 
L 222.228 198 
L 222.228 162 
" clip-path="url(#pca410b96f8)" style="fill: none; stroke: #000000; stroke-linecap: round"/>
   </g>
   <g id="line2d_8">
    <path d="M 222.228 216 
L 222.228 207 
" clip-path="url(#pca410b96f8)" style="fill: none; stroke: #000000; stroke-linecap: round"/>
   </g>
   <g id="patch_8">
    <path d="M 224.928 216 
L 222.228 225 
L 219.528 216 
z
" clip-path="url(#pca410b96f8)"/>
   </g>
   <g id="line2d_9">
    <path d="M 222.228 162 
L 258.228 162 
L 294.228 162 
" clip-path="url(#pca410b96f8)" style="fill: none; stroke: #000000; stroke-linecap: round"/>
   </g>
   <g id="line2d_10">
    <path d="M 294.228 162 
L 294.228 198 
L 294.228 234 
" clip-path="url(#pca410b96f8)" style="fill: none; stroke: #000000; stroke-linecap: round"/>
   </g>
   <g id="line2d_11">
    <path d="M 294.228 234 
L 300.708 237 
L 287.748 243 
L 300.708 249 
L 287.748 255 
L 300.708 261 
L 287.748 267 
L 294.228 270 
" clip-path="url(#pca410b96f8)" style="fill: none; stroke: #000000; stroke-linecap: round"/>
   </g>
   <g id="line2d_12">
    <path d="M 294.228 270 
L 294.228 306 
L 294.228 342 
" clip-path="url(#pca410b96f8)" style="fill: none; stroke: #000000; stroke-linecap: round"/>
   </g>
   <g id="line2d_13">
    <path d="M 294.228 342 
L 231.228 342 
L 168.228 342 
" clip-path="url(#pca410b96f8)" style="fill: none; stroke: #000000; stroke-linecap: round"/>
   </g>
   <g id="line2d_14">
    <path d="M 294.228 162 
L 348.228 162 
L 402.228 162 
" clip-path="url(#pca410b96f8)" style="fill: none; stroke: #000000; stroke-linecap: round"/>
   </g>
   <g id="line2d_15">
    <path d="M 402.228 162 
L 402.228 189 
L 408.708 192 
L 395.748 198 
L 408.708 204 
L 395.748 210 
L 408.708 216 
L 395.748 222 
L 402.228 225 
L 402.228 252 
" clip-path="url(#pca410b96f8)" style="fill: none; stroke: #000000; stroke-linecap: round"/>
   </g>
   <g id="line2d_16">
    <path d="M 402.228 252 
L 429.228 252 
L 456.228 252 
" clip-path="url(#pca410b96f8)" style="fill: none; stroke: #000000; stroke-linecap: round"/>
   </g>
   <g id="line2d_17">
    <path d="M 456.228 252 
L 456.228 279 
L 449.748 282 
L 462.708 288 
L 449.748 294 
L 462.708 300 
L 449.748 306 
L 462.708 312 
L 456.228 315 
L 456.228 342 
" clip-path="url(#pca410b96f8)" style="fill: none; stroke: #000000; stroke-linecap: round"/>
   </g>
   <g id="line2d_18">
    <path d="M 466.36599 288.810448 
L 446.508 310.5 
" clip-path="url(#pca410b96f8)" style="fill: none; stroke: #000000; stroke-linecap: round"/>
   </g>
   <g id="patch_9">
    <path d="M 464.772855 287.351845 
L 471.228 283.5 
L 467.959124 290.269051 
z
" clip-path="url(#pca410b96f8)"/>
   </g>
   <g id="line2d_19">
    <path d="M 456.228 342 
L 375.228 342 
L 294.228 342 
" clip-path="url(#pca410b96f8)" style="fill: none; stroke: #000000; stroke-linecap: round"/>
   </g>
   <g id="line2d_20">
    <path d="M 456.228 252 
L 483.228 252 
L 510.228 252 
" clip-path="url(#pca410b96f8)" style="fill: none; stroke: #000000; stroke-linecap: round"/>
   </g>
   <g id="line2d_21">
    <path d="M 510.228 252 
L 510.228 225 
L 510.228 225 
M 510.228 189 
L 510.228 189 
L 510.228 162 
" clip-path="url(#pca410b96f8)" style="fill: none; stroke: #000000; stroke-linecap: round"/>
   </g>
   <g id="line2d_22">
    <path d="M 510.228 207 
L 510.228 198 
" clip-path="url(#pca410b96f8)" style="fill: none; stroke: #000000; stroke-linecap: round"/>
   </g>
   <g id="patch_10">
    <path d="M 512.928 207 
L 510.228 216 
L 507.528 207 
z
" clip-path="url(#pca410b96f8)"/>
   </g>
   <g id="line2d_23">
    <path d="M 510.228 162 
L 582.228 162 
L 654.228 162 
" clip-path="url(#pca410b96f8)" style="fill: none; stroke: #000000; stroke-linecap: round"/>
   </g>
   <g id="line2d_24">
    <path d="M 654.228 162 
L 654.228 189 
L 660.708 192 
L 647.748 198 
L 660.708 204 
L 647.748 210 
L 660.708 216 
L 647.748 222 
L 654.228 225 
L 654.228 252 
" clip-path="url(#pca410b96f8)" style="fill: none; stroke: #000000; stroke-linecap: round"/>
   </g>
   <g id="line2d_25">
    <path d="M 654.228 252 
L 654.228 279 
L 660.708 282 
L 647.748 288 
L 660.708 294 
L 647.748 300 
L 660.708 306 
L 647.748 312 
L 654.228 315 
L 654.228 342 
" clip-path="url(#pca410b96f8)" style="fill: none; stroke: #000000; stroke-linecap: round"/>
   </g>
   <g id="line2d_26">
    <path d="M 654.228 342 
L 555.228 342 
L 456.228 342 
" clip-path="url(#pca410b96f8)" style="fill: none; stroke: #000000; stroke-linecap: round"/>
   </g>
   <g id="line2d_27">
    <path d="M 654.228 252 
L 726.228 252 
L 798.228 252 
" clip-path="url(#pca410b96f8)" style="fill: none; stroke: #000000; stroke-linecap: round"/>
   </g>
   <g id="line2d_28">
    <path d="M 654.228 342 
L 726.228 342 
L 798.228 342 
" clip-path="url(#pca410b96f8)" style="fill: none; stroke: #000000; stroke-linecap: round"/>
   </g>
   <g id="line2d_29">
    <path d="M 510.228 252 
L 537.228 252 
L 564.228 252 
" clip-path="url(#pca410b96f8)" style="fill: none; stroke: #000000; stroke-linecap: round"/>
   </g>
   <g id="line2d_30">
    <path d="M 564.228 252 
L 564.228 144 
L 564.228 36 
" clip-path="url(#pca410b96f8)" style="fill: none; stroke: #000000; stroke-linecap: round"/>
   </g>
   <g id="line2d_31">
    <path d="M 564.228 36 
L 357.228 36 
L 354.228 42.48 
L 348.228 29.52 
L 342.228 42.48 
L 336.228 29.52 
L 330.228 42.48 
L 324.228 29.52 
L 321.228 36 
L 114.228 36 
" clip-path="url(#pca410b96f8)" style="fill: none; stroke: #000000; stroke-linecap: round"/>
   </g>
   <g id="line2d_32">
    <path d="M 114.228 36 
L 114.228 99 
L 114.228 162 
" clip-path="url(#pca410b96f8)" style="fill: none; stroke: #000000; stroke-linecap: round"/>
   </g>
   <g id="line2d_33">
    <path d="M 61.578 153.9 
L 86.778 153.9 
" clip-path="url(#pca410b96f8)" style="fill: none; stroke: #ff0000; stroke-linecap: round"/>
   </g>
   <g id="patch_11">
    <path d="M 86.778 150.3 
L 97.578 153.9 
L 86.778 157.5 
z
" clip-path="url(#pca410b96f8)" style="fill: #ff0000"/>
   </g>
   <g id="line2d_34">
    <path d="M 99.108 198 
L 99.108 223.2 
" clip-path="url(#pca410b96f8)" style="fill: none; stroke: #ff0000; stroke-linecap: round"/>
   </g>
   <g id="patch_12">
    <path d="M 102.708 223.2 
L 99.108 234 
L 95.508 223.2 
z
" clip-path="url(#pca410b96f8)" style="fill: #ff0000"/>
   </g>
   <g id="line2d_35">
    <path d="M 305.028 180 
L 305.028 205.2 
" clip-path="url(#pca410b96f8)" style="fill: none; stroke: #ff0000; stroke-linecap: round"/>
   </g>
   <g id="patch_13">
    <path d="M 308.628 205.2 
L 305.028 216 
L 301.428 205.2 
z
" clip-path="url(#pca410b96f8)" style="fill: #ff0000"/>
   </g>
   <g id="line2d_36">
    <path d="M 330.228 151.2 
L 355.428 151.2 
" clip-path="url(#pca410b96f8)" style="fill: none; stroke: #ff0000; stroke-linecap: round"/>
   </g>
   <g id="patch_14">
    <path d="M 355.428 147.6 
L 366.228 151.2 
L 355.428 154.8 
z
" clip-path="url(#pca410b96f8)" style="fill: #ff0000"/>
   </g>
   <g id="line2d_37">
    <path d="M 357.228 20.88 
L 332.028 20.88 
" clip-path="url(#pca410b96f8)" style="fill: none; stroke: #ff0000; stroke-linecap: round"/>
   </g>
   <g id="patch_15">
    <path d="M 332.028 24.48 
L 321.228 20.88 
L 332.028 17.28 
z
" clip-path="url(#pca410b96f8)" style="fill: #ff0000"/>
   </g>
   <g id="line2d_38">
    <path d="M 432.348 279 
L 432.348 304.2 
" clip-path="url(#pca410b96f8)" style="fill: none; stroke: #ff0000; stroke-linecap: round"/>
   </g>
   <g id="patch_16">
    <path d="M 435.948 304.2 
L 432.348 315 
L 428.748 304.2 
z
" clip-path="url(#pca410b96f8)" style="fill: #ff0000"/>
   </g>
   <g id="line2d_39">
    <path d="M 639.108 280.35 
L 639.108 305.55 
" clip-path="url(#pca410b96f8)" style="fill: none; stroke: #ff0000; stroke-linecap: round"/>
   </g>
   <g id="patch_17">
    <path d="M 642.708 305.55 
L 639.108 316.35 
L 635.508 305.55 
z
" clip-path="url(#pca410b96f8)" style="fill: #ff0000"/>
   </g>
   <g id="line2d_40">
    <path d="M 639.108 190.35 
L 639.108 215.55 
" clip-path="url(#pca410b96f8)" style="fill: none; stroke: #ff0000; stroke-linecap: round"/>
   </g>
   <g id="patch_18">
    <path d="M 642.708 215.55 
L 639.108 226.35 
L 635.508 215.55 
z
" clip-path="url(#pca410b96f8)" style="fill: #ff0000"/>
   </g>
   <g id="line2d_41">
    <path d="M 42.228 342 
L 42.228 338.4 
L 42.228 334.8 
" clip-path="url(#pca410b96f8)" style="fill: none; stroke: #ffffff; stroke-linecap: round"/>
   </g>
   <g id="line2d_42">
    <path d="M 42.228 334.8 
L 42.228 298.8 
L 42.228 262.8 
" clip-path="url(#pca410b96f8)" style="fill: none; stroke: #0000ff; stroke-linecap: round"/>
   </g>
   <g id="line2d_43">
    <path d="M 42.228 262.8 
L 42.228 252 
L 42.228 241.2 
" clip-path="url(#pca410b96f8)" style="fill: none; stroke: #ffffff; stroke-linecap: round"/>
   </g>
   <g id="line2d_44">
    <path d="M 42.228 241.2 
L 42.228 205.2 
L 42.228 178.2 
" clip-path="url(#pca410b96f8)" style="fill: none; stroke: #0000ff; stroke-linecap: round"/>
   </g>
   <g id="patch_19">
    <path d="M 39.528 178.2 
L 42.228 169.2 
L 44.928 178.2 
z
" clip-path="url(#pca410b96f8)" style="fill: #0000ff"/>
   </g>
   <g id="line2d_45">
    <path d="M 42.228 169.2 
L 42.228 165.6 
L 42.228 162 
" clip-path="url(#pca410b96f8)" style="fill: none; stroke: #ffffff; stroke-linecap: round"/>
   </g>
   <g id="line2d_46">
    <path d="M 798.228 342 
L 798.228 338.4 
L 798.228 334.8 
" clip-path="url(#pca410b96f8)" style="fill: none; stroke: #ffffff; stroke-linecap: round"/>
   </g>
   <g id="line2d_47">
    <path d="M 798.228 334.8 
L 798.228 321.3 
L 798.228 307.8 
" clip-path="url(#pca410b96f8)" style="fill: none; stroke: #0000ff; stroke-linecap: round"/>
   </g>
   <g id="line2d_48">
    <path d="M 798.228 307.8 
L 798.228 297 
L 798.228 286.2 
" clip-path="url(#pca410b96f8)" style="fill: none; stroke: #ffffff; stroke-linecap: round"/>
   </g>
   <g id="line2d_49">
    <path d="M 798.228 286.2 
L 798.228 272.7 
L 798.228 268.2 
" clip-path="url(#pca410b96f8)" style="fill: none; stroke: #0000ff; stroke-linecap: round"/>
   </g>
   <g id="patch_20">
    <path d="M 795.528 268.2 
L 798.228 259.2 
L 800.928 268.2 
z
" clip-path="url(#pca410b96f8)" style="fill: #0000ff"/>
   </g>
   <g id="line2d_50">
    <path d="M 510.228 252 
L 510.228 255.6 
L 510.228 259.2 
" clip-path="url(#pca410b96f8)" style="fill: none; stroke: #ffffff; stroke-linecap: round"/>
   </g>
   <g id="line2d_51">
    <path d="M 510.228 268.2 
L 510.228 297 
L 510.228 334.8 
" clip-path="url(#pca410b96f8)" style="fill: none; stroke: #0000ff; stroke-linecap: round"/>
   </g>
   <g id="patch_21">
    <path d="M 507.528 268.2 
L 510.228 259.2 
L 512.928 268.2 
z
" clip-path="url(#pca410b96f8)" style="fill: #0000ff"/>
   </g>
   <g id="patch_22">
    <path d="M 114.228 164.7 
C 114.944048 164.7 115.630866 164.415511 116.137188 163.909188 
C 116.643511 163.402866 116.928 162.716048 116.928 162 
C 116.928 161.283952 116.643511 160.597134 116.137188 160.090812 
C 115.630866 159.584489 114.944048 159.3 114.228 159.3 
C 113.511952 159.3 112.825134 159.584489 112.318812 160.090812 
C 111.812489 160.597134 111.528 161.283952 111.528 162 
C 111.528 162.716048 111.812489 163.402866 112.318812 163.909188 
C 112.825134 164.415511 113.511952 164.7 114.228 164.7 
z
" clip-path="url(#pca410b96f8)" style="stroke: #000000; stroke-linejoin: miter"/>
   </g>
   <g id="text_1">
    <!-- $r_{ie1}$ -->
    <g transform="translate(124.308 219.612656) scale(0.14 -0.14)">
     <defs>
      <path id="HelveticaNeueLTPro-Roman-72" d="M 390 0 
L 934 0 
L 934 1472 
C 934 2317 1254 2810 2131 2810 
L 2131 3386 
C 1542 3405 1178 3149 915 2611 
L 902 2611 
L 902 3309 
L 390 3309 
L 390 0 
z
" transform="scale(0.015625)"/>
      <path id="HelveticaNeueLTPro-Roman-69" d="M 986 4570 
L 442 4570 
L 442 3904 
L 986 3904 
L 986 4570 
z
M 442 0 
L 986 0 
L 986 3309 
L 442 3309 
L 442 0 
z
" transform="scale(0.015625)"/>
      <path id="HelveticaNeueLTPro-Roman-65" d="M 806 1971 
C 838 2483 1190 2906 1754 2906 
C 2298 2906 2675 2490 2707 1971 
L 806 1971 
z
M 2694 1050 
C 2598 614 2291 403 1837 403 
C 1114 403 787 915 806 1491 
L 3283 1491 
C 3315 2291 2957 3386 1786 3386 
C 883 3386 230 2662 230 1664 
C 262 659 762 -77 1818 -77 
C 2566 -77 3085 314 3232 1050 
L 2694 1050 
z
" transform="scale(0.015625)"/>
      <path id="HelveticaNeueLTPro-Roman-31" d="M 2278 4538 
L 1862 4538 
C 1741 3846 1178 3686 557 3686 
L 557 3251 
L 1734 3251 
L 1734 0 
L 2278 0 
L 2278 4538 
z
" transform="scale(0.015625)"/>
     </defs>
     <use xlink:href="#HelveticaNeueLTPro-Roman-72" transform="translate(0 0.796875)"/>
     <use xlink:href="#HelveticaNeueLTPro-Roman-69" transform="translate(34.204792 -14.714062) scale(0.7)"/>
     <use xlink:href="#HelveticaNeueLTPro-Roman-65" transform="translate(49.74479 -14.714062) scale(0.7)"/>
     <use xlink:href="#HelveticaNeueLTPro-Roman-31" transform="translate(87.334788 -14.714062) scale(0.7)"/>
    </g>
   </g>
   <g id="patch_23">
    <path d="M 168.228 272.7 
C 168.944048 272.7 169.630866 272.415511 170.137188 271.909188 
C 170.643511 271.402866 170.928 270.716048 170.928 270 
C 170.928 269.283952 170.643511 268.597134 170.137188 268.090812 
C 169.630866 267.584489 168.944048 267.3 168.228 267.3 
C 167.511952 267.3 166.825134 267.584489 166.318812 268.090812 
C 165.812489 268.597134 165.528 269.283952 165.528 270 
C 165.528 270.716048 165.812489 271.402866 166.318812 271.909188 
C 166.825134 272.415511 167.511952 272.7 168.228 272.7 
z
" clip-path="url(#pca410b96f8)" style="stroke: #000000; stroke-linejoin: miter"/>
   </g>
   <g id="patch_24">
    <path d="M 168.228 344.7 
C 168.944048 344.7 169.630866 344.415511 170.137188 343.909188 
C 170.643511 343.402866 170.928 342.716048 170.928 342 
C 170.928 341.283952 170.643511 340.597134 170.137188 340.090812 
C 169.630866 339.584489 168.944048 339.3 168.228 339.3 
C 167.511952 339.3 166.825134 339.584489 166.318812 340.090812 
C 165.812489 340.597134 165.528 341.283952 165.528 342 
C 165.528 342.716048 165.812489 343.402866 166.318812 343.909188 
C 166.825134 344.415511 167.511952 344.7 168.228 344.7 
z
" clip-path="url(#pca410b96f8)" style="stroke: #000000; stroke-linejoin: miter"/>
   </g>
   <g id="text_2">
    <!-- $h_{fe1} \cdot i_{b1}$ -->
    <g style="fill: #ff0000" transform="translate(154.988 219.612656) scale(0.14 -0.14)">
     <defs>
      <path id="HelveticaNeueLTPro-Roman-68" d="M 410 0 
L 954 0 
L 954 1869 
C 954 2464 1274 2906 1933 2906 
C 2349 2906 2605 2650 2605 2240 
L 2605 0 
L 3149 0 
L 3149 2176 
C 3149 2886 2880 3386 2010 3386 
C 1619 3386 1139 3226 966 2822 
L 954 2822 
L 954 4570 
L 410 4570 
L 410 0 
z
" transform="scale(0.015625)"/>
      <path id="HelveticaNeueLTPro-Roman-66" d="M 634 0 
L 1178 0 
L 1178 2829 
L 1818 2829 
L 1818 3309 
L 1178 3309 
L 1178 3770 
C 1178 4058 1331 4141 1594 4141 
C 1690 4141 1805 4128 1901 4096 
L 1901 4570 
C 1798 4602 1651 4621 1549 4621 
C 954 4621 634 4339 634 3802 
L 634 3309 
L 77 3309 
L 77 2829 
L 634 2829 
L 634 0 
z
" transform="scale(0.015625)"/>
      <path id="STIXGeneral-Regular-22c5" d="M 1187 1888 
Q 1299 1773 1299 1619 
Q 1299 1466 1187 1350 
Q 1075 1235 921 1235 
Q 768 1235 649 1353 
Q 531 1472 531 1619 
Q 531 1766 649 1884 
Q 768 2003 921 2003 
Q 1075 2003 1187 1888 
z
" transform="scale(0.015625)"/>
      <path id="HelveticaNeueLTPro-Roman-62" d="M 429 0 
L 973 0 
L 973 442 
L 986 442 
C 1222 51 1722 -77 2054 -77 
C 3066 -77 3565 704 3565 1645 
C 3565 2579 3059 3386 2042 3386 
C 1581 3386 1165 3226 986 2861 
L 973 2861 
L 973 4570 
L 429 4570 
L 429 0 
z
M 2989 1683 
C 2989 1037 2739 403 1997 403 
C 1248 403 954 1011 954 1658 
C 954 2272 1229 2906 1965 2906 
C 2669 2906 2989 2304 2989 1683 
z
" transform="scale(0.015625)"/>
     </defs>
     <use xlink:href="#HelveticaNeueLTPro-Roman-68" transform="translate(0 0.59375)"/>
     <use xlink:href="#HelveticaNeueLTPro-Roman-66" transform="translate(56.504796 -14.917187) scale(0.7)"/>
     <use xlink:href="#HelveticaNeueLTPro-Roman-65" transform="translate(77.224789 -14.917187) scale(0.7)"/>
     <use xlink:href="#HelveticaNeueLTPro-Roman-31" transform="translate(114.814787 -14.917187) scale(0.7)"/>
     <use xlink:href="#STIXGeneral-Regular-22c5" transform="translate(173.359933 0.59375)"/>
     <use xlink:href="#HelveticaNeueLTPro-Roman-69" transform="translate(218.99992 0.59375)"/>
     <use xlink:href="#HelveticaNeueLTPro-Roman-62" transform="translate(242.104722 -14.917187) scale(0.7)"/>
     <use xlink:href="#HelveticaNeueLTPro-Roman-31" transform="translate(283.614713 -14.917187) scale(0.7)"/>
    </g>
   </g>
   <g id="patch_25">
    <path d="M 294.228 164.7 
C 294.944048 164.7 295.630866 164.415511 296.137188 163.909188 
C 296.643511 163.402866 296.928 162.716048 296.928 162 
C 296.928 161.283952 296.643511 160.597134 296.137188 160.090812 
C 295.630866 159.584489 294.944048 159.3 294.228 159.3 
C 293.511952 159.3 292.825134 159.584489 292.318812 160.090812 
C 291.812489 160.597134 291.528 161.283952 291.528 162 
C 291.528 162.716048 291.812489 163.402866 292.318812 163.909188 
C 292.825134 164.415511 293.511952 164.7 294.228 164.7 
z
" clip-path="url(#pca410b96f8)" style="stroke: #000000; stroke-linejoin: miter"/>
   </g>
   <g id="text_3">
    <!-- $R_{C1}$ -->
    <g transform="translate(304.308 255.612656) scale(0.14 -0.14)">
     <defs>
      <path id="HelveticaNeueLTPro-Roman-52" d="M 499 0 
L 1107 0 
L 1107 1952 
L 2592 1952 
C 3181 1952 3283 1568 3354 1126 
C 3443 678 3347 186 3520 0 
L 4198 0 
C 3942 307 3962 819 3930 1261 
C 3878 1702 3776 2099 3245 2202 
L 3245 2214 
C 3802 2368 4038 2816 4038 3373 
C 4038 4109 3514 4570 2650 4570 
L 499 4570 
L 499 0 
z
M 1107 2464 
L 1107 4058 
L 2618 4058 
C 3187 4058 3430 3731 3430 3277 
C 3430 2611 2938 2464 2374 2464 
L 1107 2464 
z
" transform="scale(0.015625)"/>
      <path id="HelveticaNeueLTPro-Roman-43" d="M 4320 3194 
C 4186 4166 3392 4678 2438 4678 
C 1030 4678 275 3603 275 2272 
C 275 941 973 -109 2387 -109 
C 3546 -109 4243 576 4365 1722 
L 3757 1722 
C 3706 966 3232 403 2438 403 
C 1344 403 883 1274 883 2317 
C 883 3270 1344 4166 2432 4166 
C 3072 4166 3578 3840 3712 3194 
L 4320 3194 
z
" transform="scale(0.015625)"/>
     </defs>
     <use xlink:href="#HelveticaNeueLTPro-Roman-52" transform="translate(0 0.59375)"/>
     <use xlink:href="#HelveticaNeueLTPro-Roman-43" transform="translate(69.404789 -14.917187) scale(0.7)"/>
     <use xlink:href="#HelveticaNeueLTPro-Roman-31" transform="translate(119.944777 -14.917187) scale(0.7)"/>
    </g>
   </g>
   <g id="patch_26">
    <path d="M 168.228 344.7 
C 168.944048 344.7 169.630866 344.415511 170.137188 343.909188 
C 170.643511 343.402866 170.928 342.716048 170.928 342 
C 170.928 341.283952 170.643511 340.597134 170.137188 340.090812 
C 169.630866 339.584489 168.944048 339.3 168.228 339.3 
C 167.511952 339.3 166.825134 339.584489 166.318812 340.090812 
C 165.812489 340.597134 165.528 341.283952 165.528 342 
C 165.528 342.716048 165.812489 343.402866 166.318812 343.909188 
C 166.825134 344.415511 167.511952 344.7 168.228 344.7 
z
" clip-path="url(#pca410b96f8)" style="stroke: #000000; stroke-linejoin: miter"/>
   </g>
   <g id="text_4">
    <!-- $r_{ie2}$ -->
    <g transform="translate(412.308 210.612656) scale(0.14 -0.14)">
     <defs>
      <path id="HelveticaNeueLTPro-Roman-32" d="M 826 2931 
C 806 3475 1075 4058 1709 4058 
C 2189 4058 2586 3731 2586 3238 
C 2586 2605 2195 2336 1427 1856 
C 787 1472 237 1069 154 0 
L 3117 0 
L 3117 480 
L 787 480 
C 890 1037 1498 1338 2061 1677 
C 2624 2035 3162 2432 3162 3232 
C 3162 4077 2528 4538 1741 4538 
C 781 4538 230 3853 282 2931 
L 826 2931 
z
" transform="scale(0.015625)"/>
     </defs>
     <use xlink:href="#HelveticaNeueLTPro-Roman-72" transform="translate(0 0.796875)"/>
     <use xlink:href="#HelveticaNeueLTPro-Roman-69" transform="translate(34.204792 -14.714062) scale(0.7)"/>
     <use xlink:href="#HelveticaNeueLTPro-Roman-65" transform="translate(49.74479 -14.714062) scale(0.7)"/>
     <use xlink:href="#HelveticaNeueLTPro-Roman-32" transform="translate(87.334788 -14.714062) scale(0.7)"/>
    </g>
   </g>
   <g id="patch_27">
    <path d="M 456.228 254.7 
C 456.944048 254.7 457.630866 254.415511 458.137188 253.909188 
C 458.643511 253.402866 458.928 252.716048 458.928 252 
C 458.928 251.283952 458.643511 250.597134 458.137188 250.090812 
C 457.630866 249.584489 456.944048 249.3 456.228 249.3 
C 455.511952 249.3 454.825134 249.584489 454.318812 250.090812 
C 453.812489 250.597134 453.528 251.283952 453.528 252 
C 453.528 252.716048 453.812489 253.402866 454.318812 253.909188 
C 454.825134 254.415511 455.511952 254.7 456.228 254.7 
z
" clip-path="url(#pca410b96f8)" style="stroke: #000000; stroke-linejoin: miter"/>
   </g>
   <g id="text_5">
    <!-- $R_{E2}$ -->
    <g transform="translate(466.548 311.412656) scale(0.14 -0.14)">
     <defs>
      <path id="HelveticaNeueLTPro-Roman-45" d="M 499 0 
L 3674 0 
L 3674 512 
L 1107 512 
L 1107 2093 
L 3482 2093 
L 3482 2605 
L 1107 2605 
L 1107 4058 
L 3654 4058 
L 3654 4570 
L 499 4570 
L 499 0 
z
" transform="scale(0.015625)"/>
     </defs>
     <use xlink:href="#HelveticaNeueLTPro-Roman-52" transform="translate(0 0.59375)"/>
     <use xlink:href="#HelveticaNeueLTPro-Roman-45" transform="translate(69.404789 -14.917187) scale(0.7)"/>
     <use xlink:href="#HelveticaNeueLTPro-Roman-32" transform="translate(112.174783 -14.917187) scale(0.7)"/>
    </g>
   </g>
   <g id="patch_28">
    <path d="M 294.228 344.7 
C 294.944048 344.7 295.630866 344.415511 296.137188 343.909188 
C 296.643511 343.402866 296.928 342.716048 296.928 342 
C 296.928 341.283952 296.643511 340.597134 296.137188 340.090812 
C 295.630866 339.584489 294.944048 339.3 294.228 339.3 
C 293.511952 339.3 292.825134 339.584489 292.318812 340.090812 
C 291.812489 340.597134 291.528 341.283952 291.528 342 
C 291.528 342.716048 291.812489 343.402866 292.318812 343.909188 
C 292.825134 344.415511 293.511952 344.7 294.228 344.7 
z
" clip-path="url(#pca410b96f8)" style="stroke: #000000; stroke-linejoin: miter"/>
   </g>
   <g id="patch_29">
    <path d="M 510.228 254.7 
C 510.944048 254.7 511.630866 254.415511 512.137188 253.909188 
C 512.643511 253.402866 512.928 252.716048 512.928 252 
C 512.928 251.283952 512.643511 250.597134 512.137188 250.090812 
C 511.630866 249.584489 510.944048 249.3 510.228 249.3 
C 509.511952 249.3 508.825134 249.584489 508.318812 250.090812 
C 507.812489 250.597134 507.528 251.283952 507.528 252 
C 507.528 252.716048 507.812489 253.402866 508.318812 253.909188 
C 508.825134 254.415511 509.511952 254.7 510.228 254.7 
z
" clip-path="url(#pca410b96f8)" style="stroke: #000000; stroke-linejoin: miter"/>
   </g>
   <g id="text_6">
    <!-- $h_{fe2} \cdot i_{b2}$ -->
    <g style="fill: #ff0000" transform="translate(442.988 210.612656) scale(0.14 -0.14)">
     <use xlink:href="#HelveticaNeueLTPro-Roman-68" transform="translate(0 0.59375)"/>
     <use xlink:href="#HelveticaNeueLTPro-Roman-66" transform="translate(56.504796 -14.917187) scale(0.7)"/>
     <use xlink:href="#HelveticaNeueLTPro-Roman-65" transform="translate(77.224789 -14.917187) scale(0.7)"/>
     <use xlink:href="#HelveticaNeueLTPro-Roman-32" transform="translate(114.814787 -14.917187) scale(0.7)"/>
     <use xlink:href="#STIXGeneral-Regular-22c5" transform="translate(173.359933 0.59375)"/>
     <use xlink:href="#HelveticaNeueLTPro-Roman-69" transform="translate(218.99992 0.59375)"/>
     <use xlink:href="#HelveticaNeueLTPro-Roman-62" transform="translate(242.104722 -14.917187) scale(0.7)"/>
     <use xlink:href="#HelveticaNeueLTPro-Roman-32" transform="translate(283.614713 -14.917187) scale(0.7)"/>
    </g>
   </g>
   <g id="patch_30">
    <path d="M 654.228 254.7 
C 654.944048 254.7 655.630866 254.415511 656.137188 253.909188 
C 656.643511 253.402866 656.928 252.716048 656.928 252 
C 656.928 251.283952 656.643511 250.597134 656.137188 250.090812 
C 655.630866 249.584489 654.944048 249.3 654.228 249.3 
C 653.511952 249.3 652.825134 249.584489 652.318812 250.090812 
C 651.812489 250.597134 651.528 251.283952 651.528 252 
C 651.528 252.716048 651.812489 253.402866 652.318812 253.909188 
C 652.825134 254.415511 653.511952 254.7 654.228 254.7 
z
" clip-path="url(#pca410b96f8)" style="stroke: #000000; stroke-linejoin: miter"/>
   </g>
   <g id="text_7">
    <!-- $R_{C2b}$ -->
    <g transform="translate(664.308 211.962656) scale(0.14 -0.14)">
     <use xlink:href="#HelveticaNeueLTPro-Roman-52" transform="translate(0 0.59375)"/>
     <use xlink:href="#HelveticaNeueLTPro-Roman-43" transform="translate(69.404789 -14.917187) scale(0.7)"/>
     <use xlink:href="#HelveticaNeueLTPro-Roman-32" transform="translate(119.944777 -14.917187) scale(0.7)"/>
     <use xlink:href="#HelveticaNeueLTPro-Roman-62" transform="translate(158.86477 -14.917187) scale(0.7)"/>
    </g>
   </g>
   <g id="patch_31">
    <path d="M 654.228 344.7 
C 654.944048 344.7 655.630866 344.415511 656.137188 343.909188 
C 656.643511 343.402866 656.928 342.716048 656.928 342 
C 656.928 341.283952 656.643511 340.597134 656.137188 340.090812 
C 655.630866 339.584489 654.944048 339.3 654.228 339.3 
C 653.511952 339.3 652.825134 339.584489 652.318812 340.090812 
C 651.812489 340.597134 651.528 341.283952 651.528 342 
C 651.528 342.716048 651.812489 343.402866 652.318812 343.909188 
C 652.825134 344.415511 653.511952 344.7 654.228 344.7 
z
" clip-path="url(#pca410b96f8)" style="stroke: #000000; stroke-linejoin: miter"/>
   </g>
   <g id="text_8">
    <!-- $R_{S}$ -->
    <g transform="translate(664.308 294.762656) scale(0.14 -0.14)">
     <defs>
      <path id="HelveticaNeueLTPro-Roman-53" d="M 3718 3232 
C 3686 4237 2970 4678 2035 4678 
C 1197 4678 378 4262 378 3341 
C 378 1664 3302 2490 3302 1235 
C 3302 576 2694 403 2144 403 
C 1453 403 813 736 813 1504 
L 237 1504 
C 237 397 1101 -109 2125 -109 
C 2957 -109 3910 282 3910 1254 
C 3910 3053 986 2259 986 3386 
C 986 3981 1491 4166 2010 4166 
C 2643 4166 3072 3891 3142 3232 
L 3718 3232 
z
" transform="scale(0.015625)"/>
     </defs>
     <use xlink:href="#HelveticaNeueLTPro-Roman-52" transform="translate(0 0.59375)"/>
     <use xlink:href="#HelveticaNeueLTPro-Roman-53" transform="translate(69.404789 -14.917187) scale(0.7)"/>
    </g>
   </g>
   <g id="text_9">
    <!-- $= R_{C2t}\,//\,RV_{2}$ -->
    <g transform="translate(667.908 308.646562) scale(0.12 -0.12)">
     <defs>
      <path id="HelveticaNeueLTPro-Roman-3d" d="M 307 755 
L 3533 755 
L 3533 1190 
L 307 1190 
L 307 755 
z
M 3533 2483 
L 307 2483 
L 307 2048 
L 3533 2048 
L 3533 2483 
z
" transform="scale(0.015625)"/>
      <path id="HelveticaNeueLTPro-Roman-74" d="M 1165 4301 
L 621 4301 
L 621 3309 
L 58 3309 
L 58 2829 
L 621 2829 
L 621 723 
C 621 115 845 0 1408 0 
L 1824 0 
L 1824 480 
L 1574 480 
C 1235 480 1165 518 1165 774 
L 1165 2829 
L 1824 2829 
L 1824 3309 
L 1165 3309 
L 1165 4301 
z
" transform="scale(0.015625)"/>
      <path id="HelveticaNeueLTPro-Roman-2f" d="M -115 -109 
L 352 -109 
L 2246 4678 
L 1779 4678 
L -115 -109 
z
" transform="scale(0.015625)"/>
      <path id="HelveticaNeueLTPro-Roman-56" d="M 3923 4570 
L 3290 4570 
L 1971 608 
L 1958 608 
L 653 4570 
L -6 4570 
L 1606 0 
L 2298 0 
L 3923 4570 
z
" transform="scale(0.015625)"/>
     </defs>
     <use xlink:href="#HelveticaNeueLTPro-Roman-3d" transform="translate(17.039996 0.90625)"/>
     <use xlink:href="#HelveticaNeueLTPro-Roman-52" transform="translate(94.079977 0.90625)"/>
     <use xlink:href="#HelveticaNeueLTPro-Roman-43" transform="translate(163.484767 -14.604687) scale(0.7)"/>
     <use xlink:href="#HelveticaNeueLTPro-Roman-32" transform="translate(214.024754 -14.604687) scale(0.7)"/>
     <use xlink:href="#HelveticaNeueLTPro-Roman-74" transform="translate(252.944748 -14.604687) scale(0.7)"/>
     <use xlink:href="#HelveticaNeueLTPro-Roman-2f" transform="translate(291.780174 0.90625)"/>
     <use xlink:href="#HelveticaNeueLTPro-Roman-2f" transform="translate(325.080162 0.90625)"/>
     <use xlink:href="#HelveticaNeueLTPro-Roman-52" transform="translate(372.580431 0.90625)"/>
     <use xlink:href="#HelveticaNeueLTPro-Roman-56" transform="translate(441.080415 0.90625)"/>
     <use xlink:href="#HelveticaNeueLTPro-Roman-32" transform="translate(503.085211 -14.604687) scale(0.7)"/>
    </g>
   </g>
   <g id="patch_32">
    <path d="M 456.228 344.7 
C 456.944048 344.7 457.630866 344.415511 458.137188 343.909188 
C 458.643511 343.402866 458.928 342.716048 458.928 342 
C 458.928 341.283952 458.643511 340.597134 458.137188 340.090812 
C 457.630866 339.584489 456.944048 339.3 456.228 339.3 
C 455.511952 339.3 454.825134 339.584489 454.318812 340.090812 
C 453.812489 340.597134 453.528 341.283952 453.528 342 
C 453.528 342.716048 453.812489 343.402866 454.318812 343.909188 
C 454.825134 344.415511 455.511952 344.7 456.228 344.7 
z
" clip-path="url(#pca410b96f8)" style="stroke: #000000; stroke-linejoin: miter"/>
   </g>
   <g id="text_10">
    <!-- $R_F$ -->
    <g transform="translate(331.318 56.076875) scale(0.14 -0.14)">
     <defs>
      <path id="HelveticaNeueLTPro-Roman-46" d="M 499 0 
L 1107 0 
L 1107 2093 
L 3206 2093 
L 3206 2605 
L 1107 2605 
L 1107 4058 
L 3501 4058 
L 3501 4570 
L 499 4570 
L 499 0 
z
" transform="scale(0.015625)"/>
     </defs>
     <use xlink:href="#HelveticaNeueLTPro-Roman-52" transform="translate(0 0.59375)"/>
     <use xlink:href="#HelveticaNeueLTPro-Roman-46" transform="translate(69.404789 -14.917187) scale(0.7)"/>
    </g>
   </g>
   <g id="text_11">
    <!-- $i_1$ -->
    <g style="fill: #ff0000" transform="translate(75.028 149.328437) scale(0.14 -0.14)">
     <use xlink:href="#HelveticaNeueLTPro-Roman-69" transform="translate(0 0.59375)"/>
     <use xlink:href="#HelveticaNeueLTPro-Roman-31" transform="translate(23.104802 -14.917187) scale(0.7)"/>
    </g>
   </g>
   <g id="text_12">
    <!-- $i_{b1}$ -->
    <g style="fill: #ff0000" transform="translate(80.528 219.612656) scale(0.14 -0.14)">
     <use xlink:href="#HelveticaNeueLTPro-Roman-69" transform="translate(0 0.59375)"/>
     <use xlink:href="#HelveticaNeueLTPro-Roman-62" transform="translate(23.104802 -14.917187) scale(0.7)"/>
     <use xlink:href="#HelveticaNeueLTPro-Roman-31" transform="translate(64.614793 -14.917187) scale(0.7)"/>
    </g>
   </g>
   <g id="text_13">
    <!-- $i_{c1}$ -->
    <g style="fill: #ff0000" transform="translate(308.628 201.612656) scale(0.14 -0.14)">
     <defs>
      <path id="HelveticaNeueLTPro-Roman-63" d="M 3219 2246 
C 3136 3034 2547 3386 1792 3386 
C 742 3386 230 2605 230 1613 
C 230 621 768 -77 1779 -77 
C 2618 -77 3117 397 3238 1210 
L 2682 1210 
C 2611 704 2304 403 1773 403 
C 1082 403 806 998 806 1613 
C 806 2278 1050 2906 1837 2906 
C 2291 2906 2573 2662 2656 2246 
L 3219 2246 
z
" transform="scale(0.015625)"/>
     </defs>
     <use xlink:href="#HelveticaNeueLTPro-Roman-69" transform="translate(0 0.59375)"/>
     <use xlink:href="#HelveticaNeueLTPro-Roman-63" transform="translate(23.104802 -14.917187) scale(0.7)"/>
     <use xlink:href="#HelveticaNeueLTPro-Roman-31" transform="translate(60.694799 -14.917187) scale(0.7)"/>
    </g>
   </g>
   <g id="text_14">
    <!-- $i_{b2}$ -->
    <g style="fill: #ff0000" transform="translate(340.738 144.828437) scale(0.14 -0.14)">
     <use xlink:href="#HelveticaNeueLTPro-Roman-69" transform="translate(0 0.59375)"/>
     <use xlink:href="#HelveticaNeueLTPro-Roman-62" transform="translate(23.104802 -14.917187) scale(0.7)"/>
     <use xlink:href="#HelveticaNeueLTPro-Roman-32" transform="translate(64.614793 -14.917187) scale(0.7)"/>
    </g>
   </g>
   <g id="text_15">
    <!-- $i_f$ -->
    <g style="fill: #ff0000" transform="translate(335.938 14.676875) scale(0.14 -0.14)">
     <use xlink:href="#HelveticaNeueLTPro-Roman-69" transform="translate(0 0.59375)"/>
     <use xlink:href="#HelveticaNeueLTPro-Roman-66" transform="translate(23.104802 -14.917187) scale(0.7)"/>
    </g>
   </g>
   <g id="text_16">
    <!-- $i_{e2}$ -->
    <g style="fill: #ff0000" transform="translate(414.328 300.612656) scale(0.14 -0.14)">
     <use xlink:href="#HelveticaNeueLTPro-Roman-69" transform="translate(0 0.59375)"/>
     <use xlink:href="#HelveticaNeueLTPro-Roman-65" transform="translate(23.104802 -14.917187) scale(0.7)"/>
     <use xlink:href="#HelveticaNeueLTPro-Roman-32" transform="translate(60.694799 -14.917187) scale(0.7)"/>
    </g>
   </g>
   <g id="text_17">
    <!-- $i_{c2}$ -->
    <g style="fill: #ff0000" transform="translate(621.088 301.962656) scale(0.14 -0.14)">
     <use xlink:href="#HelveticaNeueLTPro-Roman-69" transform="translate(0 0.59375)"/>
     <use xlink:href="#HelveticaNeueLTPro-Roman-63" transform="translate(23.104802 -14.917187) scale(0.7)"/>
     <use xlink:href="#HelveticaNeueLTPro-Roman-32" transform="translate(60.694799 -14.917187) scale(0.7)"/>
    </g>
   </g>
   <g id="text_18">
    <!-- $i_{c2}$ -->
    <g style="fill: #ff0000" transform="translate(621.088 211.962656) scale(0.14 -0.14)">
     <use xlink:href="#HelveticaNeueLTPro-Roman-69" transform="translate(0 0.59375)"/>
     <use xlink:href="#HelveticaNeueLTPro-Roman-63" transform="translate(23.104802 -14.917187) scale(0.7)"/>
     <use xlink:href="#HelveticaNeueLTPro-Roman-32" transform="translate(60.694799 -14.917187) scale(0.7)"/>
    </g>
   </g>
   <g id="text_19">
    <!-- $v_{in}$ -->
    <g style="fill: #0000ff" transform="translate(34.668 255.612656) scale(0.14 -0.14)">
     <defs>
      <path id="HelveticaNeueLTPro-Roman-76" d="M 3110 3309 
L 2541 3309 
L 1638 550 
L 1626 550 
L 698 3309 
L 90 3309 
L 1318 0 
L 1901 0 
L 3110 3309 
z
" transform="scale(0.015625)"/>
      <path id="HelveticaNeueLTPro-Roman-6e" d="M 410 0 
L 954 0 
L 954 1869 
C 954 2464 1274 2906 1933 2906 
C 2349 2906 2605 2650 2605 2240 
L 2605 0 
L 3149 0 
L 3149 2176 
C 3149 2886 2880 3386 2010 3386 
C 1530 3386 1165 3194 934 2784 
L 922 2784 
L 922 3309 
L 410 3309 
L 410 0 
z
" transform="scale(0.015625)"/>
     </defs>
     <use xlink:href="#HelveticaNeueLTPro-Roman-76" transform="translate(0 0.296875)"/>
     <use xlink:href="#HelveticaNeueLTPro-Roman-69" transform="translate(50.904789 -15.214062) scale(0.7)"/>
     <use xlink:href="#HelveticaNeueLTPro-Roman-6e" transform="translate(66.444787 -15.214062) scale(0.7)"/>
    </g>
   </g>
   <g id="text_20">
    <!-- $v_{out}$ -->
    <g style="fill: #0000ff" transform="translate(787.378 300.612656) scale(0.14 -0.14)">
     <defs>
      <path id="HelveticaNeueLTPro-Roman-6f" d="M 806 1651 
C 806 2451 1267 2906 1837 2906 
C 2406 2906 2867 2451 2867 1651 
C 2867 851 2406 403 1837 403 
C 1267 403 806 851 806 1651 
z
M 230 1651 
C 230 685 787 -77 1837 -77 
C 2886 -77 3443 685 3443 1651 
C 3443 2624 2886 3386 1837 3386 
C 787 3386 230 2624 230 1651 
z
" transform="scale(0.015625)"/>
      <path id="HelveticaNeueLTPro-Roman-75" d="M 3149 3309 
L 2605 3309 
L 2605 1440 
C 2605 845 2285 403 1626 403 
C 1210 403 954 659 954 1069 
L 954 3309 
L 410 3309 
L 410 1133 
C 410 422 678 -77 1549 -77 
C 2029 -77 2394 115 2624 525 
L 2637 525 
L 2637 0 
L 3149 0 
L 3149 3309 
z
" transform="scale(0.015625)"/>
     </defs>
     <use xlink:href="#HelveticaNeueLTPro-Roman-76" transform="translate(0 0.296875)"/>
     <use xlink:href="#HelveticaNeueLTPro-Roman-6f" transform="translate(50.904789 -15.214062) scale(0.7)"/>
     <use xlink:href="#HelveticaNeueLTPro-Roman-75" transform="translate(91.084785 -15.214062) scale(0.7)"/>
     <use xlink:href="#HelveticaNeueLTPro-Roman-74" transform="translate(130.004779 -15.214062) scale(0.7)"/>
    </g>
   </g>
   <g id="text_21">
    <!-- $v_{f}$ -->
    <g style="fill: #0000ff" transform="translate(333.978 77.670877) scale(0.14 -0.14)">
     <use xlink:href="#HelveticaNeueLTPro-Roman-76" transform="translate(0 0.296875)"/>
     <use xlink:href="#HelveticaNeueLTPro-Roman-66" transform="translate(50.904789 -15.214062) scale(0.7)"/>
    </g>
   </g>
   <g id="text_22">
    <!-- $v_{b2}$ -->
    <g style="fill: #0000ff" transform="translate(351.073998 255.612656) scale(0.14 -0.14)">
     <use xlink:href="#HelveticaNeueLTPro-Roman-76" transform="translate(0 0.296875)"/>
     <use xlink:href="#HelveticaNeueLTPro-Roman-62" transform="translate(50.904789 -15.214062) scale(0.7)"/>
     <use xlink:href="#HelveticaNeueLTPro-Roman-32" transform="translate(92.414781 -15.214062) scale(0.7)"/>
    </g>
   </g>
   <g id="text_23">
    <!-- $v_{e2}$ -->
    <g style="fill: #0000ff" transform="translate(513.828 300.612656) scale(0.14 -0.14)">
     <use xlink:href="#HelveticaNeueLTPro-Roman-76" transform="translate(0 0.296875)"/>
     <use xlink:href="#HelveticaNeueLTPro-Roman-65" transform="translate(50.904789 -15.214062) scale(0.7)"/>
     <use xlink:href="#HelveticaNeueLTPro-Roman-32" transform="translate(88.494787 -15.214062) scale(0.7)"/>
    </g>
   </g>
   <g id="patch_33">
    <path d="M 42.228 164.7 
C 42.944048 164.7 43.630866 164.415511 44.137188 163.909188 
C 44.643511 163.402866 44.928 162.716048 44.928 162 
C 44.928 161.283952 44.643511 160.597134 44.137188 160.090812 
C 43.630866 159.584489 42.944048 159.3 42.228 159.3 
C 41.511952 159.3 40.825134 159.584489 40.318812 160.090812 
C 39.812489 160.597134 39.528 161.283952 39.528 162 
C 39.528 162.716048 39.812489 163.402866 40.318812 163.909188 
C 40.825134 164.415511 41.511952 164.7 42.228 164.7 
z
" clip-path="url(#pca410b96f8)" style="fill: #ffffff; stroke: #000000; stroke-linejoin: miter"/>
   </g>
   <g id="text_24">
    <!-- input -->
    <g transform="translate(4.54175 165.612656) scale(0.14 -0.14)">
     <defs>
      <path id="HelveticaNeueLTPro-Roman-70" d="M 429 -1267 
L 973 -1267 
L 973 442 
L 986 442 
C 1222 51 1722 -77 2054 -77 
C 3066 -77 3565 704 3565 1645 
C 3565 2579 3059 3386 2042 3386 
C 1581 3386 1165 3226 986 2861 
L 973 2861 
L 973 3309 
L 429 3309 
L 429 -1267 
z
M 2989 1683 
C 2989 1037 2739 403 1997 403 
C 1248 403 954 1011 954 1658 
C 954 2272 1229 2906 1965 2906 
C 2669 2906 2989 2304 2989 1683 
z
" transform="scale(0.015625)"/>
     </defs>
     <use xlink:href="#HelveticaNeueLTPro-Roman-69"/>
     <use xlink:href="#HelveticaNeueLTPro-Roman-6e" transform="translate(22.199997 0)"/>
     <use xlink:href="#HelveticaNeueLTPro-Roman-70" transform="translate(77.799988 0)"/>
     <use xlink:href="#HelveticaNeueLTPro-Roman-75" transform="translate(137.099976 0)"/>
     <use xlink:href="#HelveticaNeueLTPro-Roman-74" transform="translate(192.699966 0)"/>
    </g>
   </g>
   <g id="patch_34">
    <path d="M 42.228 344.7 
C 42.944048 344.7 43.630866 344.415511 44.137188 343.909188 
C 44.643511 343.402866 44.928 342.716048 44.928 342 
C 44.928 341.283952 44.643511 340.597134 44.137188 340.090812 
C 43.630866 339.584489 42.944048 339.3 42.228 339.3 
C 41.511952 339.3 40.825134 339.584489 40.318812 340.090812 
C 39.812489 340.597134 39.528 341.283952 39.528 342 
C 39.528 342.716048 39.812489 343.402866 40.318812 343.909188 
C 40.825134 344.415511 41.511952 344.7 42.228 344.7 
z
" clip-path="url(#pca410b96f8)" style="fill: #ffffff; stroke: #000000; stroke-linejoin: miter"/>
   </g>
   <g id="patch_35">
    <path d="M 798.228 254.7 
C 798.944048 254.7 799.630866 254.415511 800.137188 253.909188 
C 800.643511 253.402866 800.928 252.716048 800.928 252 
C 800.928 251.283952 800.643511 250.597134 800.137188 250.090812 
C 799.630866 249.584489 798.944048 249.3 798.228 249.3 
C 797.511952 249.3 796.825134 249.584489 796.318812 250.090812 
C 795.812489 250.597134 795.528 251.283952 795.528 252 
C 795.528 252.716048 795.812489 253.402866 796.318812 253.909188 
C 796.825134 254.415511 797.511952 254.7 798.228 254.7 
z
" clip-path="url(#pca410b96f8)" style="fill: #ffffff; stroke: #000000; stroke-linejoin: miter"/>
   </g>
   <g id="text_25">
    <!-- output -->
    <g transform="translate(804.528 255.612656) scale(0.14 -0.14)">
     <use xlink:href="#HelveticaNeueLTPro-Roman-6f"/>
     <use xlink:href="#HelveticaNeueLTPro-Roman-75" transform="translate(57.399994 0)"/>
     <use xlink:href="#HelveticaNeueLTPro-Roman-74" transform="translate(112.999985 0)"/>
     <use xlink:href="#HelveticaNeueLTPro-Roman-70" transform="translate(144.499969 0)"/>
     <use xlink:href="#HelveticaNeueLTPro-Roman-75" transform="translate(203.799957 0)"/>
     <use xlink:href="#HelveticaNeueLTPro-Roman-74" transform="translate(259.399948 0)"/>
    </g>
   </g>
   <g id="patch_36">
    <path d="M 798.228 344.7 
C 798.944048 344.7 799.630866 344.415511 800.137188 343.909188 
C 800.643511 343.402866 800.928 342.716048 800.928 342 
C 800.928 341.283952 800.643511 340.597134 800.137188 340.090812 
C 799.630866 339.584489 798.944048 339.3 798.228 339.3 
C 797.511952 339.3 796.825134 339.584489 796.318812 340.090812 
C 795.812489 340.597134 795.528 341.283952 795.528 342 
C 795.528 342.716048 795.812489 343.402866 796.318812 343.909188 
C 796.825134 344.415511 797.511952 344.7 798.228 344.7 
z
" clip-path="url(#pca410b96f8)" style="fill: #ffffff; stroke: #000000; stroke-linejoin: miter"/>
   </g>
  </g>
 </g>
 <defs>
  <clipPath id="pca410b96f8">
   <rect x="0" y="-0" width="849.528" height="349.38"/>
  </clipPath>
 </defs>
</svg>
